<?xml version="1.0" encoding="utf-8"?>
<!-- Generator: Adobe Illustrator 25.4.1, SVG Export Plug-In . SVG Version: 6.00 Build 0)  -->
<svg version="1.1" id="OBJECTS" xmlns="http://www.w3.org/2000/svg" xmlns:xlink="http://www.w3.org/1999/xlink" x="0px" y="0px"
	 viewBox="0 0 900 500" style="enable-background:new 0 0 900 500;" xml:space="preserve">
<style type="text/css">
	.st0{fill:#FFFFFF;}
	.st1{fill:#A0C6F4;}
	.st2{fill:#2A1E17;}
	.st3{fill:#EAECEC;}
	.st4{fill:#F9865F;}
	.st5{fill:#2A1E33;}
	.st6{fill:#7595EC;}
	.st7{fill:#FF8A66;}
	.st8{fill:#FFF7C9;}
	.st9{fill:#FF6D66;}
	.st10{fill:#FAD8B0;}
	.st11{fill:#C6CBCB;}
	.st12{fill:#FFF7DC;}
	.st13{fill:#FFE1C0;}
	.st14{fill:#91BA83;}
	.st15{fill:#96BD89;}
</style>
<g>
	<g>
		<path class="st0" d="M450.81,138.87c-42.38-39.72-92.02-49.97-105.14-52.06c8.84-23.84,22.49-59.28,25.9-64.53
			c1.09-0.15,3.33-0.38,6.63-0.38c9.64,0,30.27,2.01,60.12,15.44c43.1,19.4,54.64,41.22,56.9,46.55L450.81,138.87z"/>
	</g>
	<g>
		<path class="st1" d="M378.2,24.52c9.43,0,29.64,1.98,59.04,15.21c38.99,17.55,51.59,37.16,54.91,43.8l-41.62,51.54
			c-25.05-22.81-52.05-35.4-70.72-42.03c-13.24-4.7-24.08-7.11-30.58-8.28c9.77-26.24,20.39-53.26,23.96-60.01
			C374.35,24.62,376.03,24.52,378.2,24.52 M378.2,19.28c-5.24,0-7.94,0.55-7.94,0.55c-3.06,1.02-28.17,69.11-28.17,69.11
			s59.59,6.08,108.97,53.78l47.13-58.36c0,0-7.87-26.49-58.81-49.42C409.54,21.52,388.73,19.28,378.2,19.28L378.2,19.28z"/>
	</g>
	<g>
		<path class="st2" d="M445.54,133.96c-0.16,0-0.32-0.06-0.44-0.17c-35.53-32.62-93.74-38.84-94.32-38.89
			c-0.36-0.04-0.62-0.36-0.58-0.72c0.04-0.36,0.38-0.61,0.72-0.58c0.59,0.06,59.23,6.32,95.08,39.23c0.27,0.24,0.28,0.66,0.04,0.92
			C445.9,133.88,445.72,133.96,445.54,133.96z"/>
	</g>
	<g>
		<polygon class="st1" points="401.44,91.38 423.3,48.87 445.77,93.2 		"/>
	</g>
	<g>
		<path class="st2" d="M450.02,93.25c-0.01,0-0.02,0-0.03,0l-44.33-1.82c-0.22-0.01-0.43-0.13-0.54-0.32
			c-0.11-0.19-0.12-0.43-0.02-0.63l21.86-42.5c0.11-0.22,0.34-0.36,0.58-0.36c0,0,0,0,0,0c0.25,0,0.47,0.14,0.58,0.36L450.6,92.3
			c0.1,0.21,0.09,0.45-0.03,0.65C450.45,93.14,450.24,93.25,450.02,93.25z M406.74,90.16l42.19,1.73l-21.38-42.19L406.74,90.16z"/>
	</g>
	<g>
		<path class="st2" d="M491.71,71.81c-0.19,0-0.37-0.08-0.5-0.23c-40.19-47.76-105.44-54.16-106.1-54.22
			c-0.36-0.03-0.62-0.35-0.59-0.71c0.03-0.36,0.35-0.63,0.71-0.59c0.66,0.06,66.44,6.5,106.98,54.68c0.23,0.28,0.2,0.69-0.08,0.92
			C492.01,71.76,491.86,71.81,491.71,71.81z"/>
	</g>
	<g>
		<path class="st2" d="M418.74,205.06c-3.61-2.65-5.98-4.43-5.98-4.43c1-1.33,16.81-18.18,25.96-31.75
			C438.73,168.88,420.22,206.15,418.74,205.06z"/>
	</g>
	<g>
		<path class="st2" d="M206.06,105.82c-0.04,0-0.09,0-0.14-0.01c-0.35-0.08-0.57-0.41-0.5-0.75c0.32-1.6,3.56-2.42,8.47-3.48
			c1.48-0.32,3.01-0.65,3.39-0.87c0.9-0.51,1.83-1.05-0.67-7.21c-2.42-5.96-9.26-9.56-14.21-9.18c-1.25,0.1-2.24,0.24-3.04,0.36
			c-2.51,0.37-3.66,0.54-5.2-2.04c-0.19-0.31-0.09-0.71,0.22-0.9c0.31-0.18,0.71-0.09,0.9,0.22c1.1,1.83,1.47,1.78,3.89,1.42
			c0.82-0.12,1.84-0.27,3.13-0.37c5.35-0.42,12.89,3.5,15.52,9.99c2.5,6.14,2.02,7.74,0.11,8.83c-0.52,0.3-1.71,0.57-3.76,1.01
			c-1.98,0.43-7.25,1.58-7.47,2.46C206.63,105.61,206.36,105.82,206.06,105.82z"/>
	</g>
	<g>
		<path class="st3" d="M235.79,413.72"/>
	</g>
	<g>
		<polygon class="st4" points="326.52,400.71 321.96,393 305.79,419.95 310.03,423.22 		"/>
	</g>
	<g>
		<path class="st4" d="M219.15,333.87c0,0-8.38-13.62-4.78-20.3l26.73,2.86L219.15,333.87z"/>
	</g>
	<g>
		<path d="M219.15,333.87l1.6,3.68l-4.94,19.26c-0.62,2.42,0.18,4.99,2.08,6.63l0,0l24.45-36.14c2.32-3.43,1.8-8.05-1.24-10.87
			l-5.46-5.07L219.15,333.87z"/>
	</g>
	<g>
		<path class="st5" d="M206.07,105.18c7.66-0.18,17.36-0.67,15.42-6.49c-1.94-5.82-9.22-20.37-25.71-16.01c0,0-5.82,4.85,1.46,13.58
			C204.51,105,206.07,105.18,206.07,105.18z"/>
	</g>
	<g>
		<path class="st6" d="M244.81,316.76c0,0-13.07-38.58-2.01-55.52c9.13-13.98,38.94,8.76,43.02,11.82l21.33-38.53
			c0,0-4.92-6.9-17.01-13.66s-62.04-27-85.51,10.03c-8.68,13.69-8.81,72.42,7.83,94.93L244.81,316.76z"/>
	</g>
	<g>
		<path class="st2" d="M244.81,317.41c-0.27,0-0.53-0.17-0.62-0.44c-0.54-1.59-13.04-39.08-1.94-56.09
			c1.64-2.51,4.01-4.05,7.06-4.59c10.76-1.89,27.62,9.26,36.7,16.09l0.21,0.16c0.29,0.22,0.35,0.63,0.13,0.92
			c-0.22,0.29-0.63,0.35-0.92,0.13l-0.21-0.16c-15.38-11.56-28.05-17.19-35.69-15.84c-2.67,0.47-4.75,1.82-6.19,4.01
			c-10.76,16.48,1.95,54.57,2.08,54.95c0.12,0.34-0.07,0.71-0.41,0.83C244.95,317.4,244.88,317.41,244.81,317.41z"/>
	</g>
	<g>
		<path class="st6" d="M307.16,234.54c-9.7,10.21-38.47,59.96-44.93,83.74c-8.65,31.81-5.4,58.18,42.15,109.84l22.99-33.48
			c0,0-16.16-24.54-13.14-47.68c4.37-33.47,28.18-65.92,40.23-86.5L307.16,234.54z"/>
	</g>
	<g>
		<polygon class="st2" points="310.81,238.86 349.05,268.87 360.47,251.49 		"/>
	</g>
	<g>
		<path class="st7" d="M530.43,207.31c5.96,1.28,10.51,3.55,13.63,6.81c3.12,3.27,1.7,4.97,0.57,5.96
			c-1.14,0.99-5.54-0.14-9.37-3.55S530.43,207.31,530.43,207.31z"/>
	</g>
	<g>
		<path class="st4" d="M412.76,200.63c1-1.33,16.81-18.18,25.96-31.75c0,0,27.67,31,30.67,32c1.12,0.37,7.9,0.28,16.32,0.2
			c14.23-0.15,33.16-0.29,37.35,1.8c6.67,3.33,10.67,5,12.33,9.67s2.32,7.72-1.67,8c-4.67,0.33-7.67-5.67-7.67-5.67
			s-3.81,2.3-13.67,6c0,0-35.45,13.76-59.15,7.11C446.77,226.17,412.76,200.63,412.76,200.63z"/>
	</g>
	<g>
		<path class="st4" d="M197.85,76.81c-3.04,1.16-4.89,2.54-3.13,5.48s2.54,1.76,7.63,1.37s12.33,3.33,14.87,9.59
			c2.54,6.26,1.76,7.24,0.39,8.02c-1.37,0.78-11.15,1.96-11.54,3.91c-0.39,1.96,3.96,7.73,12.96,7.34l2.15-0.39
			c0,0,18.93,18.48,21.66,21.22c2.74,2.74,22.87,16.38,33.96,19.15c8.43,2.11,25.5-0.61,35.76-2.61c4.98-0.97,8.36-1.78,8.36-1.78
			s-7.7-13.87-9.27-35.19c0,0-18.42,2.96-30.66,5.64c0,0-28.56-15.93-42.45-22.97c0,0-12.13-14.87-17.8-16.82
			S201.96,75.25,197.85,76.81z"/>
	</g>
	<g>
		<path class="st2" d="M312.56,149.88c4.98-0.97,8.36-1.78,8.36-1.78s-9.31-11.74-10.88-33.06c0,0-4.21,4.54-2.9,16.62
			C308.79,146.84,312.56,149.88,312.56,149.88z"/>
	</g>
	<g>
		<path class="st8" d="M309.59,112.66c0,0,0.26,26.06,7.24,36.93l2.5-1c0,0-32.9,38.49-43.54,63.64
			c-1.74,4.12,68.31,48.86,78.66,48.23c0,0,34.13-52.09,45.8-67.53l12.54,9.72c0,0,24.61-24.92,25.93-33.77
			c0,0-23.77-28.92-43.21-37.39s-36.82-22.97-57.71-22.58C319.73,109.25,309.59,112.66,309.59,112.66z"/>
	</g>
	<g>
		<polygon class="st2" points="412.8,202.65 400.26,192.92 402.25,187.48 		"/>
	</g>
	<g>
		<path class="st4" d="M431.88,99.61c-2.2,6.83-8.54,26.59-15.62,29.03s-14.44-0.62-14.44-0.62l-7.54,3.86
			c-0.84,2.52-6.79,4.7-14.47,4.99c-5.69,0.22-9.15-7.08-7.47-12.37c0.77-2.43,3.66-14.4,3.66-14.4s6.1-22.45,11.71-27.08
			c5.61-4.64,10.89-9.23,25.86-3.17C436.52,89.11,431.88,99.61,431.88,99.61z"/>
	</g>
	<g>
		<path class="st5" d="M386.42,100.58c-1.01,4.2-5.37,12.59-8.22,11.07c-2.85-1.51-3.86-5.37-1.85-12.75
			c2.01-7.38,3.69-24.16,9.4-27.18s8.22,0.5,8.22,0.5s-2.52-12.25,4.87-13.93c0,0,2.52-1.17,1.51,7.22c0,0,2.85-7.72,12.08-6.71
			c9.23,1.01,12.42,13.93,12.42,13.93s0.67-3.52,4.87-3.52c4.2,0,10.57,6.21,9.06,13.09c0,0,10.74-3.36,16.44,5.2
			c5.71,8.56,5.03,17.95-8.73,21.65c-14.39,3.86-14.26-12.92-16.44-15.1c-2.18-2.18-4.53-4.7-12.59-1.68
			c-8.05,3.02-16.44-5.87-16.44-5.87s-1.34,10.74-2.68,11.75s-4.03,2.35-3.36-2.68c0.67-5.03,1.51-4.53,1.01-5.87
			c-0.5-1.34-2.77-5.58-7.55-1.85C383.06,92.02,386.42,100.58,386.42,100.58z"/>
	</g>
	<g>
		<path class="st5" d="M388.7,103.11c-0.15,0-0.3-0.05-0.42-0.15c-3.22-2.71-5.88-7.73-2.75-13c2-3.35,4.81-4.69,6.78-4.81
			c1.35-0.09,2.48,0.34,3.13,1.16c1.73,2.2,2,5.58,0.73,9.03c-0.13,0.34-0.5,0.51-0.84,0.39c-0.34-0.13-0.51-0.5-0.39-0.84
			c1.12-3.02,0.92-5.93-0.53-7.77c-0.38-0.48-1.12-0.72-2.01-0.66c-1.64,0.11-4.01,1.26-5.74,4.18c-2.71,4.56-0.37,8.95,2.46,11.33
			c0.28,0.23,0.31,0.64,0.08,0.92C389.07,103.03,388.89,103.11,388.7,103.11z"/>
	</g>
	<g>
		<path d="M310.03,423.22l1.6,3.68l-4.94,19.26c-0.62,2.42,0.18,4.99,2.08,6.63l0,0l24.45-36.14c2.32-3.43,1.8-8.05-1.24-10.87
			l-5.46-5.07L310.03,423.22z"/>
	</g>
	<g>
		<path class="st5" d="M393.97,72.87c-0.28,0-0.54-0.18-0.62-0.46c-0.02-0.06-1.85-5.77-7.04-7.26c-0.35-0.1-0.55-0.46-0.45-0.81
			c0.1-0.35,0.45-0.55,0.81-0.45c5.88,1.68,7.85,7.87,7.93,8.13c0.11,0.34-0.09,0.71-0.43,0.82
			C394.1,72.86,394.03,72.87,393.97,72.87z"/>
	</g>
	<g>
		<path class="st2" d="M275.03,211.04c-0.13,0-0.27-0.04-0.38-0.12c-0.29-0.21-0.36-0.62-0.15-0.91l67.72-94.6
			c0.21-0.3,0.62-0.36,0.91-0.15c0.29,0.21,0.36,0.62,0.15,0.91l-67.72,94.6C275.43,210.94,275.23,211.04,275.03,211.04z"/>
	</g>
	<g>
		<path class="st2" d="M381.07,140.87c-0.9,0-1.82-0.03-2.78-0.11c-5.22-0.41-7.62-3.44-8.72-5.9c-2.08-4.68-1.05-10.75,0.58-12.86
			c0.22-0.29,0.63-0.34,0.92-0.12c0.29,0.22,0.34,0.63,0.12,0.92c-1.4,1.82-2.28,7.35-0.42,11.53c1.38,3.11,3.95,4.84,7.63,5.13
			c10.84,0.85,17.91-3.88,17.98-3.93c0.3-0.2,0.71-0.13,0.91,0.17c0.2,0.3,0.13,0.7-0.17,0.91
			C396.84,136.79,390.78,140.87,381.07,140.87z"/>
	</g>
	<g>
		<path class="st2" d="M229.7,93.32c-0.27,0-0.53-0.17-0.62-0.45c-1.17-3.51-8.78-13.61-8.86-13.71c-0.22-0.29-0.16-0.7,0.13-0.92
			c0.29-0.22,0.7-0.16,0.92,0.13c0.32,0.42,7.82,10.37,9.06,14.08c0.11,0.34-0.07,0.71-0.41,0.83
			C229.83,93.31,229.77,93.32,229.7,93.32z"/>
	</g>
	<g>
		<path class="st2" d="M516.29,218.37c-3.94,0-5.98-1.62-6.11-1.73c-0.28-0.23-0.32-0.64-0.09-0.92c0.23-0.28,0.64-0.32,0.92-0.09
			c0.21,0.17,5.03,3.88,14.75-1.32c1.2-0.64,1.68-1.64,1.28-2.67c-0.49-1.26-2.18-2.24-4.47-1.66c-4.85,1.21-10.46-0.53-10.7-0.6
			c-0.34-0.11-0.54-0.48-0.43-0.82c0.11-0.34,0.48-0.54,0.82-0.43c0.05,0.02,5.5,1.7,9.99,0.58c3.03-0.75,5.31,0.66,6.01,2.46
			c0.64,1.66-0.1,3.34-1.89,4.3C522.21,217.68,518.85,218.37,516.29,218.37z"/>
	</g>
	<g>
		<path class="st2" d="M537.03,217.78c-0.01,0-0.02,0-0.03,0c-0.36-0.02-0.64-0.32-0.63-0.68c0.1-2.61-3.34-7.22-4.67-8.78
			c-0.23-0.27-0.2-0.69,0.07-0.92c0.27-0.23,0.69-0.2,0.92,0.07c0.21,0.24,5.13,6.02,4.98,9.68
			C537.67,217.5,537.38,217.78,537.03,217.78z"/>
	</g>
	<g>
		<path class="st2" d="M459.17,207.92c-0.14,0-0.27-0.04-0.39-0.13c-0.29-0.22-0.35-0.63-0.13-0.91c0.19-0.25,4.73-6.22,10.7-6.65
			c0.35-0.03,0.67,0.25,0.7,0.61c0.03,0.36-0.25,0.67-0.61,0.7c-5.36,0.38-9.7,6.07-9.75,6.13
			C459.57,207.83,459.37,207.92,459.17,207.92z"/>
	</g>
	<g>
		<path class="st2" d="M269.98,128.87c-0.07,0-0.13-0.01-0.2-0.03c-0.34-0.11-0.53-0.48-0.42-0.82c0.11-0.35,2.84-8.55,11.52-10.1
			c0.35-0.07,0.7,0.17,0.76,0.53c0.06,0.36-0.17,0.7-0.53,0.76c-7.89,1.41-10.48,9.14-10.51,9.22
			C270.52,128.7,270.26,128.87,269.98,128.87z"/>
	</g>
	<g>
		<path class="st2" d="M260.9,363.81c-0.28,0-0.54-0.18-0.62-0.46c-11.16-35.95,21.54-91.92,21.87-92.48l10-19.12
			c0.17-0.32,0.56-0.44,0.88-0.28c0.32,0.17,0.44,0.56,0.28,0.88l-10.01,19.15c-0.34,0.59-32.75,56.06-21.77,91.46
			c0.11,0.34-0.09,0.71-0.43,0.82C261.03,363.8,260.97,363.81,260.9,363.81z"/>
	</g>
	<g>
		<path class="st2" d="M321.97,316.79c-0.11,0-0.23-0.03-0.33-0.09c-0.31-0.18-0.42-0.58-0.23-0.89l32.48-55.68
			c0.45-0.66,42.62-61.85,46.91-70.42l15.03-27.81c0.17-0.32,0.57-0.44,0.89-0.26c0.32,0.17,0.44,0.57,0.26,0.89l-15.02,27.79
			c-4.32,8.63-45.23,67.99-46.96,70.52l-32.46,55.64C322.41,316.67,322.2,316.79,321.97,316.79z"/>
	</g>
	<g>
		<path class="st2" d="M354.45,261.11c-0.03,0-0.05,0-0.08-0.01c-17.1-2.02-72.83-42.54-75.2-44.26c-0.29-0.21-0.36-0.62-0.14-0.91
			c0.21-0.29,0.62-0.36,0.91-0.14c0.58,0.42,57.82,42.03,74.58,44.02c0.36,0.04,0.62,0.37,0.57,0.73
			C355.06,260.87,354.78,261.11,354.45,261.11z"/>
	</g>
	<g>
		<path class="st2" d="M316.66,150.57c-0.21,0-0.42-0.1-0.55-0.29c-7.15-10.87-7.18-36.54-7.18-37.62c0-0.36,0.29-0.65,0.65-0.65h0
			c0.36,0,0.65,0.29,0.65,0.66c0,0.26,0.03,26.36,6.96,36.9c0.2,0.3,0.11,0.71-0.19,0.91C316.91,150.54,316.79,150.57,316.66,150.57
			z"/>
	</g>
	<g>
		<path class="st2" d="M410.94,199.11c-0.17,0-0.35-0.07-0.47-0.2c-0.25-0.26-0.24-0.68,0.02-0.92c0.24-0.23,23.98-22.85,25.73-33.4
			c0.06-0.36,0.4-0.6,0.75-0.54c0.36,0.06,0.6,0.4,0.54,0.75c-1.83,10.98-25.13,33.2-26.12,34.14
			C411.27,199.05,411.11,199.11,410.94,199.11z"/>
	</g>
	<g>
		<path class="st2" d="M431.17,196.77"/>
	</g>
	<g>
		<path class="st4" d="M539.33,274.94"/>
	</g>
	<g>
		<circle class="st2" cx="256.96" cy="296.92" r="3.43"/>
	</g>
	<g>
		<path class="st2" d="M578.75,371.28c-0.06,0-0.11-0.01-0.17-0.02c-0.25-0.07-0.44-0.28-0.48-0.54l-1.9-13.12
			c-0.04-0.26,0.08-0.51,0.3-0.65c0.22-0.14,0.5-0.13,0.71,0.01l11.19,7.44c0.22,0.14,0.33,0.41,0.28,0.67s-0.25,0.46-0.5,0.52
			l-5.62,1.23l-3.29,4.22C579.14,371.19,578.95,371.28,578.75,371.28z M577.72,358.86l1.47,10.15l2.49-3.19
			c0.09-0.12,0.23-0.2,0.38-0.24l4.35-0.95L577.72,358.86z"/>
	</g>
	<g>
		<path class="st2" d="M396.15,403.07c-23.88,0-65.88-20.31-117.02-79.54c-97.71-113.16-100.17-166.17-87.82-178.39
			c4.47-4.42,11.05-4.01,16.77,1.04c0.27,0.24,0.3,0.65,0.06,0.92c-0.24,0.27-0.65,0.3-0.92,0.06c-5.16-4.56-11.05-4.98-14.99-1.09
			c-2.86,2.83-11.05,14.87,3.43,51.12c13.46,33.69,42.67,77.08,84.46,125.49c56.75,65.72,101.92,83.27,123.37,78.31
			c8.1-1.87,13.44-6.89,15.45-14.51c3.48-13.16,2.97-23.7,0.63-31.85c-7.45-3.82-13.67-8.38-18.38-13.58
			c-3.9-4.3-5.31-7.65-3.97-9.44c1.09-1.46,3.65-1.4,6.86,0.15c6.22,3.01,13.21,10.46,16.59,22c36.23,18.27,98.99,17.24,145.3-5.26
			c20.13-9.78,30.98-22.43,32.23-37.59c1.54-18.69-12.14-34.33-13.66-35.41c-0.29-0.21-0.36-0.62-0.16-0.91
			c0.21-0.3,0.62-0.36,0.91-0.16c2.76,1.96,15.71,18.36,14.21,36.58c-1.29,15.65-12.38,28.66-32.96,38.66
			c-27.51,13.36-61.84,19.89-94.21,17.91c-19.89-1.22-37.51-5.48-51.22-12.17c2.15,8.47,2.37,18.98-0.91,31.41
			c-2.15,8.12-7.83,13.47-16.42,15.45C401.5,402.79,398.95,403.07,396.15,403.07z M399.75,331.87c-0.74,0-1.25,0.2-1.49,0.52
			c-0.66,0.88-0.04,3.45,3.89,7.78c4.46,4.92,10.19,9.18,16.88,12.74c-3.83-11.54-11.31-17.93-15.53-19.97
			C401.94,332.17,400.66,331.87,399.75,331.87z"/>
	</g>
	<g>
		<circle class="st2" cx="567.18" cy="348.81" r="3.43"/>
	</g>
	<g>
		<path class="st2" d="M517.27,377.46c-0.23,0-0.45-0.12-0.57-0.33c-0.18-0.31-0.07-0.71,0.25-0.89l101.66-57.3
			c0.31-0.18,0.71-0.07,0.89,0.25c0.18,0.31,0.07,0.71-0.25,0.89l-101.66,57.3C517.49,377.43,517.38,377.46,517.27,377.46z"/>
	</g>
	<g>
		<circle class="st2" cx="209.77" cy="149.44" r="3.43"/>
	</g>
	<g>
		<circle class="st9" cx="297.22" cy="78.63" r="7.36"/>
	</g>
	<g>
		<path class="st1" d="M163.7,22.51c-1.79,0-3.23,1.45-3.23,3.23s1.45,3.23,3.23,3.23c1.79,0,3.23-1.45,3.23-3.23
			S165.49,22.51,163.7,22.51L163.7,22.51z"/>
	</g>
	<g>
		<circle class="st10" cx="597.13" cy="421.03" r="3.23"/>
	</g>
	<g>
		<path class="st5" d="M539.33,274.94l-34.77-16.32c-2.81-1.32-2.76-5.32,0.08-6.57l64.69-28.47c0.92-0.4,1.96-0.41,2.88-0.01
			l44.44,19.07L539.33,274.94z"/>
	</g>
	<g>
		<path class="st11" d="M537.18,221.31c0.09,14.39,2.15,53.63,2.15,53.63l77.31-32.3l-1.73-54.61c-0.11-3.35-3.59-5.51-6.64-4.12
			l-66.57,30.34C538.94,215.51,537.16,218.27,537.18,221.31z"/>
	</g>
	<g>
		<path class="st2" d="M539.33,275.59c-0.26,0-0.5-0.15-0.6-0.4c-0.14-0.33,0.02-0.72,0.35-0.85l76.9-32.12l-1.72-54.16c0,0,0,0,0,0
			c0,0-0.23-2.22-1.79-3.27c-0.99-0.67-2.33-0.75-4.01-0.25c-0.34,0.1-0.71-0.09-0.81-0.44c-0.1-0.35,0.09-0.71,0.44-0.81
			c2.08-0.62,3.8-0.48,5.13,0.42c2.08,1.41,2.34,4.16,2.35,4.27l1.74,54.64c0.01,0.27-0.15,0.52-0.4,0.62l-77.31,32.3
			C539.5,275.58,539.42,275.59,539.33,275.59z"/>
	</g>
	<g>
		<path class="st2" d="M576.75,236.34c-0.09,0-0.17-0.02-0.26-0.05c-0.33-0.14-0.49-0.52-0.35-0.86l5.22-12.34
			c0.14-0.33,0.53-0.49,0.86-0.35c0.33,0.14,0.49,0.52,0.35,0.86l-5.22,12.34C577.25,236.2,577.01,236.34,576.75,236.34z"/>
	</g>
	<g>
		<path class="st2" d="M581.97,236.34c-0.09,0-0.17-0.02-0.25-0.05c-0.33-0.14-0.49-0.52-0.35-0.86l5.22-12.34
			c0.14-0.33,0.52-0.49,0.86-0.35c0.33,0.14,0.49,0.52,0.35,0.86l-5.22,12.34C582.47,236.2,582.23,236.34,581.97,236.34z"/>
	</g>
	<g>
		<circle class="st9" cx="177.65" cy="367.04" r="3.23"/>
	</g>
	<g>
		<circle class="st9" cx="450.38" cy="383.07" r="4.49"/>
	</g>
	<g>
		<path class="st12" d="M211.17,415c5.26,2.52,20.58,8.89,40.85,8.76c1.11-0.01,1.97,0.97,1.83,2.07l-2.82,22.4
			c-0.1,0.8-0.7,1.43-1.49,1.58c-5.72,1.07-28.8,4.24-46.06-10.4c-0.54-0.46-0.76-1.19-0.57-1.87l5.7-21.35
			C208.9,415.08,210.13,414.5,211.17,415z"/>
	</g>
	<g>
		<path class="st2" d="M227.82,438.47c-0.58,0-1.06-0.09-1.42-0.3c-3.64-2.06-13.33-15.63-13.74-16.21
			c-0.21-0.29-0.14-0.7,0.15-0.91s0.7-0.14,0.91,0.15c3.42,4.8,10.6,14.3,13.32,15.83c2.34,1.33,14.8-5.08,22.09-9.43
			c0.31-0.18,0.71-0.09,0.9,0.23c0.19,0.31,0.08,0.71-0.23,0.9C246.87,430.48,233.18,438.47,227.82,438.47z"/>
	</g>
	<g>
		<path class="st2" d="M246.6,447.07c-0.17,0-0.34-0.07-0.47-0.2l-10.48-10.77c-0.25-0.26-0.25-0.67,0.01-0.92
			c0.26-0.25,0.67-0.25,0.92,0.01l10.48,10.77c0.25,0.26,0.25,0.67-0.01,0.92C246.93,447.01,246.77,447.07,246.6,447.07z"/>
	</g>
	<g>
		<path class="st2" d="M209.32,437.56c-0.29,0-0.55-0.19-0.63-0.48c-0.09-0.35,0.11-0.71,0.46-0.8l12.25-3.33
			c0.35-0.09,0.71,0.11,0.8,0.46c0.09,0.35-0.11,0.71-0.46,0.8l-12.25,3.33C209.43,437.55,209.38,437.56,209.32,437.56z"/>
	</g>
	<g>
		<rect x="520.22" y="150.03" class="st13" width="11.7" height="11.7"/>
	</g>
	<g>
		<polygon class="st1" points="521.8,307.89 525.28,313.91 528.76,319.94 521.8,319.94 514.85,319.94 518.33,313.91 		"/>
	</g>
	<g>
		<path class="st2" d="M243.09,45.19c-0.95,0-1.58-0.35-1.97-0.68c-0.84-0.72-1.28-1.98-1.23-3.55l0,0l0.91-27.35
			c-0.09-2.5,0.84-3.85,3.03-4.33c7.53-1.67,30.26-6.69,54.91,0.59c3.62,1.07,3.55,3.18,3.49,4.72l-0.88,26.14
			c-0.03,1.01-0.5,1.93-1.32,2.62c-0.99,0.83-2.35,1.19-3.73,0.98c-6.38-0.93-15.6-1.38-26.73-1.28
			c-10.05,0.08-19.14,0.82-25.62,2.06C243.63,45.17,243.35,45.19,243.09,45.19z M241.19,41L241.19,41
			c-0.04,1.15,0.24,2.06,0.77,2.51c0.4,0.34,0.99,0.45,1.73,0.31c6.55-1.26,15.74-2,25.86-2.09c11.34-0.09,20.4,0.34,26.93,1.3
			c1.02,0.15,2-0.1,2.7-0.69c0.53-0.44,0.83-1.03,0.85-1.66l0.88-26.08c0.05-1.54,0.09-2.7-2.55-3.48
			c-24.33-7.19-46.8-2.22-54.19-0.59c-1.4,0.31-2.15,0.9-2.07,3.07L241.19,41z"/>
	</g>
	<g>
		<path class="st2" d="M248.8,37.64c-0.24,0-0.46-0.13-0.58-0.35c-0.13-0.24-0.09-0.53,0.08-0.73l14.3-16.74
			c0.12-0.14,0.29-0.22,0.47-0.23c0.21-0.02,0.36,0.06,0.49,0.19l15.83,15.62c0.22,0.21,0.26,0.55,0.1,0.81
			c-0.16,0.26-0.47,0.38-0.76,0.28c-5.25-1.71-29.6,1.12-29.84,1.15C248.85,37.63,248.83,37.64,248.8,37.64z M263.14,21.2
			l-12.76,14.94c5.01-0.55,19.89-2.04,26.57-1.32L263.14,21.2z"/>
	</g>
	<g>
		<path class="st2" d="M293.53,37.22c-0.01,0-0.02,0-0.03,0l-14.6-0.7c-0.36-0.02-0.64-0.32-0.62-0.68
			c0.02-0.36,0.34-0.63,0.68-0.62l13.89,0.66l-0.33-9.84l-9.07-6.48l-11.17,8.94c-0.28,0.23-0.69,0.18-0.92-0.1
			c-0.22-0.28-0.18-0.69,0.1-0.92l11.56-9.25c0.23-0.18,0.55-0.19,0.79-0.02l9.74,6.95c0.17,0.12,0.27,0.31,0.27,0.51l0.37,10.87
			c0.01,0.18-0.07,0.36-0.2,0.49C293.87,37.15,293.7,37.22,293.53,37.22z"/>
	</g>
	<g>
		<path class="st2" d="M252.32,21.77c-1.79,0-3.36-1.23-3.54-2.82c-0.09-0.75,0.14-1.49,0.65-2.09c0.59-0.7,1.5-1.13,2.49-1.18
			c1.91-0.12,3.57,1.16,3.76,2.81l0,0c0.09,0.75-0.14,1.49-0.65,2.09c-0.59,0.7-1.5,1.13-2.49,1.18
			C252.47,21.77,252.39,21.77,252.32,21.77z M252.14,16.99c-0.05,0-0.1,0-0.15,0c-0.64,0.04-1.21,0.3-1.56,0.72
			c-0.19,0.22-0.4,0.6-0.34,1.09c0.11,0.98,1.19,1.7,2.39,1.65c0.64-0.04,1.21-0.3,1.56-0.72c0.19-0.22,0.4-0.6,0.34-1.09l0,0
			C254.27,17.71,253.28,16.99,252.14,16.99z"/>
	</g>
	<g>
		<path class="st2" d="M490.33,438.07c-1.77,0-2.4-1.15-2.84-1.96l-9.16-16.93c-0.38-0.7-0.43-1.51-0.15-2.29
			c0.34-0.94,1.1-1.71,2.1-2.11c4.39-1.78,10.42-4.93,17.44-9.11c6.34-3.78,11.84-7.62,15.48-10.82c0.86-0.76,1.65-0.81,2.16-0.71
			c0.86,0.15,1.65,0.82,2.22,1.89l9.59,17.71c1.02,1.6,0.92,2.91-0.35,4.09c-4.18,3.87-16.77,15.53-35.18,20.07
			C491.15,438.02,490.71,438.07,490.33,438.07z M514.98,395.41c-0.29,0-0.6,0.14-0.92,0.42c-3.7,3.24-9.27,7.14-15.68,10.96
			c-7.17,4.28-13.09,7.37-17.61,9.2c-0.64,0.26-1.15,0.76-1.36,1.34c-0.15,0.43-0.13,0.86,0.06,1.23l9.14,16.89
			c0.52,0.96,0.89,1.63,2.72,1.18c18.08-4.46,30.48-15.95,34.56-19.73c0.64-0.59,1.03-1.13,0.15-2.5l-9.61-17.75
			c-0.38-0.7-0.85-1.14-1.3-1.22C515.09,395.41,515.04,395.41,514.98,395.41z"/>
	</g>
	<g>
		<path class="st2" d="M510.39,418.54c-0.05,0-0.11-0.01-0.16-0.02l-15.86-4.04c-0.29-0.07-0.5-0.34-0.49-0.64
			c0.01-0.3,0.22-0.56,0.51-0.63c3.15-0.69,13.46-8.01,18.47-11.79c0.22-0.16,0.51-0.17,0.74-0.03c0.23,0.14,0.35,0.41,0.3,0.67
			l-2.86,15.95c-0.03,0.18-0.14,0.34-0.29,0.44C510.64,418.51,510.51,418.54,510.39,418.54z M496.68,413.72l13.19,3.36l2.44-13.63
			C509.15,405.8,501.16,411.57,496.68,413.72z"/>
	</g>
	<g>
		<path class="st2" d="M498.04,427.05c-0.02,0-0.04,0-0.06,0l-8.77-0.8c-0.2-0.02-0.39-0.13-0.49-0.3l-4.27-6.77
			c-0.1-0.15-0.13-0.34-0.08-0.52c0.05-0.18,0.17-0.32,0.33-0.41l9.54-4.99c0.32-0.16,0.71-0.04,0.88,0.28
			c0.17,0.32,0.04,0.72-0.28,0.88l-8.91,4.66l3.72,5.9l7.96,0.72l3.73-9.71c0.13-0.34,0.51-0.51,0.84-0.38
			c0.34,0.13,0.51,0.51,0.38,0.84l-3.9,10.17C498.55,426.89,498.31,427.05,498.04,427.05z"/>
	</g>
	<g>
		<path class="st2" d="M517.62,417.28c-0.79,0-1.54-0.32-2-0.93l0,0c-0.36-0.48-0.5-1.09-0.4-1.7c0.12-0.71,0.57-1.36,1.22-1.79
			c1.23-0.82,2.88-0.62,3.67,0.43c0.36,0.48,0.5,1.08,0.4,1.7c-0.12,0.71-0.57,1.36-1.22,1.79
			C518.77,417.11,518.18,417.28,517.62,417.28z M516.66,415.56c0.38,0.5,1.24,0.56,1.9,0.12c0.35-0.23,0.59-0.57,0.65-0.92
			c0.03-0.18,0.03-0.44-0.15-0.69c-0.38-0.5-1.24-0.56-1.9-0.13c-0.35,0.23-0.59,0.57-0.65,0.92
			C516.48,415.05,516.48,415.31,516.66,415.56L516.66,415.56z"/>
	</g>
	<g>
		<path class="st0" d="M470.32,93.98l38.97,29.83c0.85,0.65,2.08,0.48,2.72-0.39l5.88-7.97c0.61-0.83,0.46-2-0.35-2.65l-38.42-30.74
			c-0.86-0.69-2.12-0.52-2.76,0.37l-6.43,8.89C469.32,92.16,469.5,93.34,470.32,93.98z"/>
	</g>
	<g>
		<path class="st2" d="M510.46,124.85c-0.56,0-1.11-0.18-1.56-0.53L469.93,94.5c-1.12-0.86-1.35-2.42-0.52-3.56l6.43-8.89
			c0.42-0.58,1.04-0.95,1.74-1.04c0.7-0.09,1.4,0.1,1.96,0.54l38.42,30.74c1.08,0.87,1.29,2.42,0.46,3.54l-5.88,7.97
			c-0.42,0.56-1.02,0.92-1.71,1.02C510.7,124.84,510.58,124.85,510.46,124.85z M477.93,82.29c-0.06,0-0.12,0-0.17,0.01
			c-0.35,0.05-0.65,0.23-0.86,0.51l-6.43,8.89c-0.41,0.56-0.3,1.33,0.26,1.75c0,0,0,0,0,0l38.97,29.83c0.27,0.21,0.62,0.3,0.95,0.25
			c0.34-0.05,0.64-0.23,0.85-0.5l5.88-7.97c0.41-0.55,0.31-1.32-0.23-1.75l-38.42-30.74C478.49,82.38,478.22,82.29,477.93,82.29z"/>
	</g>
	<g>
		<polygon class="st9" points="473.21,92.65 482.66,99.28 488.23,92.62 478.78,84.74 		"/>
	</g>
	<g>
		<polygon class="st10" points="486.22,101.86 495.68,109.37 500.75,103.13 491.23,95.4 		"/>
	</g>
	<g>
		<polygon class="st1" points="498.86,112.25 508.31,118.89 512.81,113.1 503.86,105.61 		"/>
	</g>
	<g>
		<path class="st0" d="M548.08,52.28l8.88,74.62c0.19,1.64,1.69,2.8,3.33,2.57l15.04-2.06c1.57-0.21,2.69-1.63,2.53-3.21l-7.29-75
			c-0.16-1.68-1.69-2.88-3.36-2.63l-16.63,2.43C549,49.24,547.89,50.69,548.08,52.28z"/>
	</g>
	<g>
		<path class="st2" d="M559.88,130.15c-0.79,0-1.56-0.26-2.2-0.75c-0.77-0.6-1.26-1.46-1.37-2.42l-8.88-74.62
			c-0.23-1.95,1.11-3.7,3.06-3.99l16.63-2.43c0.98-0.15,1.96,0.11,2.74,0.73c0.78,0.61,1.27,1.5,1.37,2.49l7.29,75
			c0.19,1.93-1.17,3.65-3.1,3.92l-15.04,2.06C560.21,130.14,560.04,130.15,559.88,130.15z M567.64,47.2c-0.11,0-0.22,0.01-0.34,0.02
			l-16.63,2.43c-1.24,0.18-2.09,1.3-1.95,2.54l0,0l8.88,74.62c0.07,0.62,0.38,1.16,0.87,1.54c0.49,0.38,1.1,0.54,1.72,0.46
			l15.04-2.06c1.22-0.17,2.09-1.26,1.97-2.49l-7.29-75c-0.06-0.63-0.37-1.19-0.87-1.58C568.64,47.37,568.15,47.2,567.64,47.2z"/>
	</g>
	<g>
		<polygon class="st9" points="552.62,54.02 555.43,71.48 568.69,70.49 567.25,51.7 		"/>
	</g>
	<g>
		<polygon class="st14" points="556.39,78.14 558.26,96.55 570.52,95.45 568.84,76.74 		"/>
	</g>
	<g>
		<polygon class="st10" points="558.49,103.12 561.31,120.57 572.46,119.34 571.12,101.51 		"/>
	</g>
	<g>
		<path class="st0" d="M528.69,68.17l24.59,72.28c0.42,1.24,1.78,1.9,3.01,1.45l15.4-5.54c1.18-0.43,1.82-1.71,1.44-2.91l-23.09-73
			c-0.4-1.28-1.79-1.96-3.05-1.49l-16.9,6.26C528.91,65.65,528.28,66.96,528.69,68.17z"/>
	</g>
	<g>
		<path class="st2" d="M555.5,142.69c-0.44,0-0.89-0.1-1.3-0.3c-0.73-0.35-1.28-0.97-1.54-1.74l-24.59-72.28
			c-0.53-1.55,0.26-3.21,1.8-3.78l16.9-6.26c0.78-0.29,1.61-0.25,2.36,0.12c0.74,0.36,1.29,1,1.54,1.79l23.09,73
			c0.49,1.54-0.32,3.18-1.84,3.73l-15.4,5.55C556.19,142.63,555.84,142.69,555.5,142.69z M547.82,59.46c-0.2,0-0.4,0.04-0.59,0.11
			l-16.9,6.26c-0.87,0.32-1.31,1.26-1.01,2.13l0,0l24.59,72.28c0.15,0.43,0.45,0.78,0.87,0.98c0.42,0.2,0.87,0.22,1.31,0.07
			l15.4-5.55c0.86-0.31,1.31-1.23,1.04-2.1l-23.09-73c-0.14-0.45-0.45-0.8-0.87-1.01C548.32,59.52,548.07,59.46,547.82,59.46z"/>
	</g>
	<g>
		<polygon class="st1" points="533.69,69.48 540.07,85.97 552.83,82.25 547.51,64.17 		"/>
	</g>
	<g>
		<polygon class="st4" points="542.4,92.29 548.05,109.9 559.82,106.28 554.27,88.33 		"/>
	</g>
	<g>
		<polygon class="st10" points="549.64,116.29 556.02,132.77 566.68,129.24 561.66,112.09 		"/>
	</g>
	<g>
		<path class="st6" d="M345.06,190.61H217.51c-3.03,0-5.48-2.46-5.48-5.48v-20.17c0-3.03,2.46-5.48,5.48-5.48h127.55
			c3.03,0,5.48,2.46,5.48,5.48v20.17C350.54,188.15,348.09,190.61,345.06,190.61z"/>
	</g>
	<g>
		<path class="st0" d="M297.4,173.37h-68.81c-1,0-1.81-0.81-1.81-1.81v-1.12c0-1,0.81-1.81,1.81-1.81h68.81c1,0,1.81,0.81,1.81,1.81
			v1.12C299.21,172.56,298.4,173.37,297.4,173.37z"/>
	</g>
	<g>
		<path class="st2" d="M342.54,180.16H227.46c-0.36,0-0.65-0.29-0.65-0.65s0.29-0.65,0.65-0.65h115.08c0.36,0,0.65,0.29,0.65,0.65
			S342.9,180.16,342.54,180.16z"/>
	</g>
	<g>
		<path class="st14" d="M170.89,103.42l-2.31-2.53l-6.49,5.92l2.31,2.53c0.63,0.69,1.71,0.74,2.4,0.11l3.98-3.64
			C171.47,105.19,171.52,104.11,170.89,103.42z"/>
	</g>
	<g>
		<path class="st2" d="M161.14,107.89c-0.53,0-1.05-0.21-1.43-0.63l-9.23-10.11c-0.35-0.38-0.53-0.88-0.5-1.39
			c0.02-0.52,0.25-0.99,0.63-1.34l6.38-5.83c0.79-0.72,2.01-0.66,2.73,0.12l0,0l9.23,10.11c0.35,0.38,0.53,0.88,0.5,1.39
			c-0.02,0.52-0.25,0.99-0.63,1.34l-6.38,5.83C162.07,107.72,161.6,107.89,161.14,107.89z M158.28,89.39c-0.15,0-0.3,0.05-0.42,0.16
			l-6.38,5.83c-0.12,0.11-0.2,0.27-0.2,0.44c-0.01,0.17,0.05,0.33,0.16,0.45l9.23,10.11c0.23,0.26,0.63,0.27,0.89,0.04l6.38-5.83
			c0.12-0.11,0.2-0.27,0.2-0.43c0.01-0.17-0.05-0.33-0.16-0.45l-9.23-10.11C158.62,89.45,158.45,89.39,158.28,89.39z"/>
	</g>
	<g>
		<rect x="129.7" y="142.65" class="st9" width="11.6" height="10.59"/>
	</g>
	<g>
		<path class="st2" d="M129.7,143.3h-6.94c-0.36,0-0.65-0.29-0.65-0.65s0.29-0.65,0.65-0.65h6.29v-6.16c0-0.36,0.29-0.65,0.65-0.65
			s0.65,0.29,0.65,0.65v6.82C130.36,143.01,130.06,143.3,129.7,143.3z"/>
	</g>
	<g>
		<rect x="511.93" y="23.02" class="st10" width="11.6" height="10.59"/>
	</g>
	<g>
		<path class="st2" d="M511.93,23.67h-6.94c-0.36,0-0.65-0.29-0.65-0.65c0-0.36,0.29-0.65,0.65-0.65h6.29V16.2
			c0-0.36,0.29-0.65,0.65-0.65c0.36,0,0.65,0.29,0.65,0.65v6.82C512.58,23.38,512.29,23.67,511.93,23.67z"/>
	</g>
	<g>
		<path class="st2" d="M257.01,298c-0.03,0-0.07,0-0.1-0.01c-0.28-0.04-27.72-4.22-45.49-15.74
			c-57.06-37.01-97.41-72.85-119.93-106.54c-18.96-28.37-23.94-54.39-14.01-73.27C93.64,71.72,144.4,65.6,198.17,87.89
			c0.33,0.14,0.49,0.52,0.35,0.85c-0.14,0.33-0.52,0.49-0.85,0.35C144.54,67.08,94.48,72.94,78.64,103.05
			c-17.35,32.99,8.6,97.11,133.49,178.1c17.52,11.37,44.7,15.5,44.97,15.54c0.36,0.05,0.6,0.38,0.55,0.74
			C257.61,297.76,257.33,298,257.01,298z"/>
	</g>
	<g>
		<circle class="st2" cx="87.3" cy="91.85" r="3.43"/>
	</g>
	<g>
		<path class="st2" d="M82.19,88.4c-0.08,0-0.17-0.02-0.25-0.05L68.7,82.8c-0.17-0.07-0.3-0.2-0.36-0.37l-3.47-9.17
			c-0.09-0.25-0.03-0.52,0.16-0.7l3.75-3.6c0.21-0.2,0.52-0.24,0.78-0.1l8.63,4.94c0.14,0.08,0.25,0.21,0.3,0.37l4.34,13.38
			c0.08,0.24,0.01,0.51-0.18,0.68C82.51,88.34,82.36,88.4,82.19,88.4z M69.46,81.7l11.67,4.89L77.31,74.8l-7.99-4.57l-3.09,2.97
			L69.46,81.7z"/>
	</g>
	<g>
		<path class="st2" d="M65.48,73.68c-0.01,0-0.03,0-0.04,0c-0.18-0.01-0.35-0.1-0.47-0.24l-2.1-2.55c-0.22-0.26-0.19-0.65,0.05-0.89
			l3.6-3.45c0.13-0.12,0.29-0.18,0.47-0.18c0.17,0.01,0.34,0.08,0.46,0.21l2.25,2.4c0.25,0.26,0.23,0.67-0.02,0.92l-3.75,3.6
			C65.81,73.61,65.64,73.68,65.48,73.68z M64.26,70.53l1.27,1.54l2.78-2.67l-1.36-1.45L64.26,70.53z"/>
	</g>
	<g>
		<path class="st2" d="M82.19,88.4c-0.18,0-0.35-0.07-0.48-0.21l-8.61-9.46c-0.24-0.27-0.22-0.68,0.04-0.92
			c0.27-0.24,0.68-0.22,0.92,0.04l8.61,9.46c0.24,0.27,0.22,0.68-0.04,0.92C82.51,88.34,82.35,88.4,82.19,88.4z"/>
	</g>
	<g>
		<path class="st0" d="M103.04,327.84l9.35,48.17c0.21,1.06,1.24,1.74,2.29,1.52l9.69-2.06c1.01-0.21,1.67-1.19,1.5-2.21
			l-8.33-48.49c-0.19-1.08-1.24-1.79-2.31-1.55l-10.71,2.38C103.5,325.82,102.84,326.82,103.04,327.84z"/>
	</g>
	<g>
		<path class="st2" d="M114.27,378.23c-0.5,0-0.99-0.15-1.42-0.43c-0.58-0.39-0.97-0.97-1.11-1.66l-9.35-48.17c0,0,0,0,0,0
			c-0.27-1.38,0.6-2.7,1.97-3.01l10.71-2.38c0.69-0.15,1.4-0.02,2,0.38c0.59,0.4,0.98,1,1.1,1.7l8.33,48.49
			c0.24,1.37-0.65,2.67-2.01,2.96l-9.69,2.06C114.64,378.21,114.45,378.23,114.27,378.23z M103.69,327.72l9.35,48.17
			c0.07,0.34,0.26,0.63,0.55,0.82c0.28,0.19,0.62,0.26,0.97,0.18l9.69-2.06c0.67-0.14,1.1-0.78,0.99-1.46l-8.33-48.49
			c-0.06-0.35-0.25-0.64-0.54-0.84c-0.29-0.2-0.65-0.26-0.98-0.19l-10.71,2.38C103.98,326.39,103.55,327.04,103.69,327.72
			L103.69,327.72z"/>
	</g>
	<g>
		<polygon class="st9" points="106.08,328.76 108.75,339.99 117.34,338.72 115.5,326.55 		"/>
	</g>
	<g>
		<polygon class="st10" points="109.7,344.29 111.79,356.19 119.72,354.89 117.73,342.78 		"/>
	</g>
	<g>
		<polygon class="st1" points="112.26,360.46 114.92,371.69 122.13,370.35 120.41,358.81 		"/>
	</g>
	<g>
		<path class="st2" d="M371.81,453.31c-0.29,0-0.56-0.2-0.63-0.49l-1.06-4.08c-0.09-0.35,0.12-0.7,0.46-0.8l39.51-10.58
			c0.33-0.08,0.67,0.09,0.79,0.42l1.51,4.28c0.06,0.17,0.05,0.36-0.04,0.52c-0.09,0.16-0.24,0.28-0.41,0.33l-39.95,10.37
			C371.92,453.3,371.86,453.31,371.81,453.31z M371.54,449.04l0.73,2.82l38.63-10.03l-1.07-3.04L371.54,449.04z"/>
	</g>
	<g>
		<path class="st2" d="M366.4,447.29c-0.28,0-0.54-0.18-0.62-0.46l-1.14-3.59c-0.11-0.34,0.08-0.71,0.43-0.82
			c0.34-0.11,0.71,0.08,0.82,0.43l1.14,3.59c0.11,0.34-0.08,0.71-0.43,0.82C366.54,447.28,366.47,447.29,366.4,447.29z"/>
	</g>
	<g>
		<path class="st2" d="M364.15,446.05c-0.27,0-0.52-0.17-0.62-0.44c-0.12-0.34,0.06-0.71,0.41-0.83l3.33-1.14
			c0.34-0.12,0.71,0.06,0.83,0.41c0.12,0.34-0.06,0.71-0.41,0.83l-3.33,1.14C364.29,446.03,364.22,446.05,364.15,446.05z"/>
	</g>
	<g>
		<path class="st2" d="M365.5,464.17c-0.28,0-0.54-0.18-0.62-0.46l-2.15-6.77c-0.11-0.34,0.08-0.71,0.43-0.82
			c0.35-0.11,0.71,0.08,0.82,0.43l2.15,6.77c0.11,0.34-0.08,0.71-0.43,0.82C365.63,464.16,365.56,464.17,365.5,464.17z"/>
	</g>
	<g>
		<path class="st2" d="M361.51,461.7c-0.28,0-0.54-0.18-0.62-0.46c-0.11-0.34,0.08-0.71,0.43-0.82l5.94-1.89
			c0.35-0.11,0.71,0.08,0.82,0.43c0.11,0.34-0.08,0.71-0.43,0.82l-5.94,1.89C361.65,461.69,361.58,461.7,361.51,461.7z"/>
	</g>
	<g>
		<path class="st2" d="M357.12,455.2c-0.28,0-0.54-0.18-0.62-0.46l-2.8-8.96c-0.11-0.34,0.08-0.71,0.43-0.82
			c0.35-0.11,0.71,0.09,0.82,0.43l2.8,8.96c0.11,0.34-0.08,0.71-0.43,0.82C357.25,455.19,357.18,455.2,357.12,455.2z"/>
	</g>
	<g>
		<path class="st2" d="M351.53,451.82c-0.28,0-0.53-0.18-0.62-0.45c-0.11-0.34,0.08-0.71,0.42-0.82l8.32-2.66
			c0.35-0.11,0.71,0.08,0.82,0.42c0.11,0.34-0.08,0.71-0.42,0.82l-8.32,2.66C351.66,451.81,351.6,451.82,351.53,451.82z"/>
	</g>
	<g>
		<path class="st2" d="M82.67,19.82c-0.06,0-0.12-0.01-0.18-0.04l-25-11.29c-0.21-0.09-0.31-0.33-0.23-0.55l1.04-2.86
			c0.04-0.11,0.13-0.21,0.24-0.26c0.11-0.05,0.24-0.04,0.35,0.01l25.15,11.58c0.22,0.1,0.32,0.36,0.22,0.58l-1.18,2.57
			C82.99,19.73,82.84,19.82,82.67,19.82z M58.22,7.86L82.45,18.8l0.81-1.77L58.95,5.83L58.22,7.86z"/>
	</g>
	<g>
		<path class="st2" d="M83.17,25.02c-0.05,0-0.11-0.01-0.16-0.03c-0.23-0.09-0.34-0.34-0.25-0.57l0.93-2.35
			c0.09-0.23,0.34-0.33,0.57-0.25c0.23,0.09,0.34,0.34,0.25,0.57l-0.93,2.35C83.51,24.91,83.34,25.02,83.17,25.02z"/>
	</g>
	<g>
		<path class="st2" d="M84.74,24.28c-0.05,0-0.1-0.01-0.15-0.03l-2.22-0.82c-0.23-0.08-0.34-0.34-0.26-0.56
			c0.08-0.23,0.34-0.34,0.56-0.26l2.22,0.82c0.23,0.08,0.34,0.34,0.26,0.56C85.09,24.17,84.92,24.28,84.74,24.28z"/>
	</g>
	<g>
		<path class="st2" d="M89.98,18.72c-0.05,0-0.11-0.01-0.16-0.03c-0.23-0.09-0.34-0.34-0.25-0.57l1.76-4.43
			c0.09-0.23,0.35-0.34,0.57-0.25c0.23,0.09,0.34,0.34,0.25,0.57l-1.76,4.43C90.32,18.62,90.16,18.72,89.98,18.72z"/>
	</g>
	<g>
		<path class="st2" d="M92.75,17.27c-0.05,0-0.11-0.01-0.16-0.03l-3.88-1.54c-0.23-0.09-0.34-0.34-0.25-0.57
			c0.09-0.23,0.35-0.33,0.57-0.25l3.88,1.54c0.23,0.09,0.34,0.34,0.25,0.57C93.09,17.17,92.93,17.27,92.75,17.27z"/>
	</g>
	<g>
		<path class="st2" d="M89.93,28.35c-0.05,0-0.11-0.01-0.16-0.03c-0.22-0.09-0.33-0.35-0.24-0.57l2.35-5.84
			c0.09-0.23,0.35-0.33,0.57-0.24c0.22,0.09,0.33,0.35,0.24,0.57l-2.35,5.84C90.26,28.25,90.1,28.35,89.93,28.35z"/>
	</g>
	<g>
		<path class="st2" d="M93.74,26.64c-0.05,0-0.11-0.01-0.16-0.03l-5.45-2.15c-0.22-0.09-0.34-0.34-0.25-0.57
			c0.09-0.22,0.34-0.33,0.57-0.25l5.45,2.15c0.22,0.09,0.34,0.34,0.25,0.57C94.08,26.53,93.92,26.64,93.74,26.64z"/>
	</g>
	<g>
		<path class="st10" d="M176.1,230.53c-17.62-12.69-34.94-32.41-27.34-52.66c0,0,12.15-8.1,31.39,2.03
			c19.24,10.13,19.24,10.13,19.24,10.13L176.1,230.53z"/>
	</g>
	<g>
		<path class="st0" d="M168.11,315.06c-7.93-3.75-41.79-21.37-47.81-51.49c-5.2-26.01,14.7-61.1,24.66-76.6
			c-0.64,20.57,20.02,37.98,29.99,45.16c10.1,7.27,17.52,10.82,27.77,14.67L168.11,315.06z"/>
	</g>
	<g>
		<path class="st10" d="M143.45,193.08c2.16,13.67,12.6,27.85,30.36,40.64c9.59,6.91,16.8,10.51,26.18,14.14l-32.76,64.6
			c-9.98-4.97-39.51-21.79-45.01-49.27C117.66,240.33,133.15,210.02,143.45,193.08 M148.76,177.87c0,0-37.47,50.63-30.38,86.08
			c7.09,35.44,50.63,53.67,50.63,53.67l36.46-71.9c-11.39-4.18-18.79-7.58-29.37-15.19C158.48,217.84,141.16,198.12,148.76,177.87
			L148.76,177.87z"/>
	</g>
	<g>
		<path class="st2" d="M161.43,239.19c-0.1,0-0.21-0.02-0.31-0.08c-20.41-10.93-22.84-31.54-22.86-31.74
			c-0.04-0.36,0.22-0.68,0.58-0.72c0.35-0.04,0.68,0.22,0.72,0.58c0.02,0.2,2.4,20.13,22.18,30.73c0.32,0.17,0.44,0.57,0.27,0.89
			C161.88,239.06,161.66,239.19,161.43,239.19z"/>
	</g>
	<g>
		<path class="st2" d="M192.66,257.35c-0.1,0-0.21-0.02-0.31-0.08l-20.34-10.9c-0.32-0.17-0.44-0.57-0.27-0.89
			c0.17-0.32,0.57-0.44,0.89-0.27l20.34,10.9c0.32,0.17,0.44,0.57,0.27,0.89C193.12,257.22,192.9,257.35,192.66,257.35z"/>
	</g>
	<g>
		<path class="st2" d="M169.42,260.98c-0.09,0-0.18-0.02-0.27-0.06c-21.05-9.44-27.87-24.15-27.93-24.3c-0.15-0.33,0-0.72,0.33-0.86
			c0.33-0.14,0.71,0,0.86,0.33c0.06,0.14,6.71,14.42,27.28,23.64c0.33,0.15,0.48,0.53,0.33,0.86
			C169.9,260.83,169.67,260.98,169.42,260.98z"/>
	</g>
	<g>
		<path class="st2" d="M136,259.53c-0.1,0-0.2-0.02-0.29-0.07c-10.39-5.2-11.23-20.26-11.26-20.9c-0.02-0.36,0.26-0.67,0.62-0.68
			c0.41-0.05,0.67,0.26,0.68,0.62c0.01,0.15,0.83,14.94,10.54,19.79c0.32,0.16,0.45,0.55,0.29,0.88
			C136.47,259.39,136.24,259.53,136,259.53z"/>
	</g>
	<g>
		<path class="st2" d="M176.1,231.18c-0.15,0-0.3-0.05-0.43-0.16c-29.55-25.37-28.06-44.77-27.98-45.59
			c0.04-0.36,0.36-0.63,0.71-0.59c0.36,0.03,0.62,0.35,0.59,0.71c-0.02,0.19-1.45,19.6,27.53,44.47c0.27,0.24,0.31,0.65,0.07,0.92
			C176.47,231.11,176.29,231.18,176.1,231.18z"/>
	</g>
	<g>
		<path class="st2" d="M182.49,199.23c-0.14,0-0.27-0.04-0.39-0.13c-13.4-9.87-22.71-9.32-22.81-9.32c-0.35,0.02-0.67-0.25-0.7-0.6
			c-0.03-0.36,0.24-0.67,0.6-0.7c0.38-0.03,9.84-0.63,23.68,9.57c0.29,0.21,0.35,0.62,0.14,0.91
			C182.89,199.14,182.69,199.23,182.49,199.23z"/>
	</g>
	<g>
		<path class="st2" d="M166.45,319.74c-0.09,0-0.18-0.02-0.26-0.05c-50.8-22.38-52.65-57.74-52-68.04c0.02-0.36,0.33-0.64,0.69-0.61
			c0.36,0.02,0.63,0.33,0.61,0.69c-0.63,10.09,1.2,44.73,51.22,66.76c0.33,0.15,0.48,0.53,0.34,0.86
			C166.94,319.59,166.7,319.74,166.45,319.74z"/>
	</g>
	<g>
		<path class="st14" d="M440.54,232.09l-21.63,43.36c0,0,14.67,5.4,3.2,22.22c0,0,27.12,11.25,44.87-17.97
			S440.54,232.09,440.54,232.09z"/>
	</g>
	<g>
		<path class="st0" d="M391.02,364.6c-10.95,0-22.5-4.47-34.37-13.29l40.47-67.05l24.07,15.16l0.15,0.06
			c0.22,0.09,5.58,2.28,13.15,2.28h0c6.08,0,13.75-1.42,21.23-6.71l-29.58,50.61C426.08,345.76,413.34,364.6,391.02,364.6
			C391.02,364.6,391.02,364.6,391.02,364.6z"/>
	</g>
	<g>
		<path class="st15" d="M397.77,286.99l22.24,14l0.28,0.18l0.31,0.13c0.24,0.1,5.95,2.43,13.9,2.43c4.64,0,10.16-0.78,15.83-3.32
			l-25.81,44.16c-0.84,1.23-12.83,18.07-33.49,18.07c-10.08,0-20.75-3.99-31.76-11.86L397.77,286.99 M466.97,279.71
			c-10.03,16.51-23.05,20.09-32.47,20.09c-7.26,0-12.39-2.13-12.39-2.13l-25.62-16.14l-42.42,70.27
			c14.2,10.95,26.59,14.76,36.96,14.76c23.7,0,36.82-19.91,36.82-19.91L466.97,279.71L466.97,279.71z"/>
	</g>
	<g>
		<path class="st2" d="M422.1,298.33c-0.14,0-0.28-0.05-0.4-0.14c-0.28-0.22-0.33-0.63-0.11-0.92c4.14-5.28,5.66-9.94,4.52-13.85
			c-1.52-5.22-7.36-7.34-7.42-7.36c-0.34-0.12-0.52-0.49-0.4-0.83c0.12-0.34,0.5-0.52,0.83-0.4c0.27,0.09,6.54,2.37,8.24,8.22
			c1.26,4.33-0.33,9.38-4.74,15.02C422.49,298.24,422.3,298.33,422.1,298.33z"/>
	</g>
	<g>
		<path class="st2" d="M430.01,300.68c-12.31,0-33.57-19.34-34.47-20.17c-0.27-0.24-0.28-0.66-0.04-0.92
			c0.25-0.27,0.66-0.28,0.92-0.04c0.22,0.2,21.78,19.83,33.58,19.83c0.04,0,0.08,0,0.12,0c16.46-0.18,27.68-5.82,34.29-17.22
			c0.18-0.31,0.58-0.42,0.89-0.24c0.31,0.18,0.42,0.58,0.24,0.89c-6.87,11.84-18.45,17.68-35.41,17.87
			C430.09,300.68,430.05,300.68,430.01,300.68z"/>
	</g>
	<g>
		<path class="st2" d="M423.84,316.67c-14.03,0-25.47-9.98-25.6-10.1c-0.27-0.24-0.3-0.65-0.05-0.92c0.24-0.27,0.65-0.29,0.92-0.05
			c0.15,0.13,15.04,13.11,31.36,8.95c0.35-0.09,0.71,0.12,0.8,0.47c0.09,0.35-0.12,0.71-0.47,0.8
			C428.43,316.41,426.1,316.67,423.84,316.67z"/>
	</g>
	<g>
		<path class="st2" d="M424.03,329.46c-6,0-9.84-2.8-9.9-2.84c-0.29-0.22-0.35-0.63-0.13-0.91c0.22-0.29,0.62-0.35,0.91-0.13
			c0.31,0.23,7.75,5.61,18.29,0.26c0.32-0.16,0.72-0.03,0.88,0.29c0.16,0.32,0.03,0.72-0.29,0.88
			C430.18,328.84,426.86,329.46,424.03,329.46z"/>
	</g>
	<g>
		<path class="st2" d="M405.9,345.24c-17.5,0-28.12-10.29-28.26-10.43c-0.26-0.25-0.26-0.67,0-0.92c0.25-0.25,0.67-0.26,0.92,0
			c0.18,0.18,18.31,17.71,46.3,6.04c0.33-0.13,0.72,0.02,0.86,0.35c0.14,0.33-0.02,0.72-0.35,0.86
			C418.22,344.12,411.69,345.24,405.9,345.24z"/>
	</g>
	<g>
		<path class="st2" d="M400.17,324.32c-0.07,0-0.15-0.01-0.22-0.04c-4.7-1.71-11.97-6.89-12.28-7.11c-0.29-0.21-0.36-0.62-0.15-0.91
			c0.21-0.3,0.62-0.36,0.91-0.15c0.07,0.05,7.43,5.3,11.96,6.95c0.34,0.12,0.51,0.5,0.39,0.84
			C400.69,324.15,400.44,324.32,400.17,324.32z"/>
	</g>
	<g>
		<path class="st2" d="M462.92,272.79c-0.33,0-0.62-0.26-0.65-0.6c-1.93-21.29-18.06-26.84-18.23-26.89
			c-0.34-0.11-0.53-0.48-0.42-0.83c0.11-0.34,0.48-0.53,0.82-0.42c0.17,0.06,17.11,5.84,19.12,28.02c0.03,0.36-0.23,0.68-0.59,0.71
			C462.97,272.79,462.95,272.79,462.92,272.79z"/>
	</g>
	<g>
		<path class="st2" d="M447.34,296.28c-0.18,0-0.35-0.07-0.48-0.21c-0.24-0.27-0.22-0.68,0.04-0.92
			c12.4-11.35,5.49-22.46,5.19-22.92c-0.2-0.3-0.11-0.71,0.2-0.9c0.3-0.2,0.71-0.11,0.9,0.19c0.08,0.12,7.82,12.48-5.41,24.6
			C447.65,296.22,447.49,296.28,447.34,296.28z"/>
	</g>
	<g>
		<path class="st2" d="M392.28,370.05c-20,0-36.92-14.28-37.1-14.43c-0.27-0.23-0.31-0.65-0.07-0.92c0.23-0.27,0.65-0.31,0.92-0.07
			c0.19,0.16,19.44,16.39,40.85,13.85c11.68-1.38,21.93-8.05,30.45-19.81c0.21-0.3,0.63-0.35,0.91-0.15
			c0.29,0.21,0.36,0.62,0.15,0.91c-8.75,12.07-19.3,18.92-31.36,20.34C395.44,369.96,393.85,370.05,392.28,370.05z"/>
	</g>
	<g>
		<path class="st9" d="M63.14,219.21h-9.76c-0.36,0-0.65-0.29-0.65-0.65s0.29-0.65,0.65-0.65h9.76c0.36,0,0.65,0.29,0.65,0.65
			S63.5,219.21,63.14,219.21z"/>
	</g>
	<g>
		<path class="st9" d="M606.89,101.81h-9.76c-0.36,0-0.65-0.29-0.65-0.65c0-0.36,0.29-0.65,0.65-0.65h9.76
			c0.36,0,0.65,0.29,0.65,0.65C607.54,101.51,607.25,101.81,606.89,101.81z"/>
	</g>
	<g>
		<rect x="335.36" y="33.53" class="st10" width="9.76" height="1.31"/>
	</g>
	<g>
		
			<rect x="619.91" y="147.76" transform="matrix(0.1768 -0.9843 0.9843 0.1768 360.6257 736.4554)" class="st10" width="1.31" height="9.76"/>
	</g>
	<g>
		<path class="st1" d="M242.09,395.99h-9.76c-0.36,0-0.65-0.29-0.65-0.65s0.29-0.65,0.65-0.65h9.76c0.36,0,0.65,0.29,0.65,0.65
			S242.45,395.99,242.09,395.99z"/>
	</g>
	<g>
		<circle class="st14" cx="636.8" cy="273.66" r="3.23"/>
	</g>
	<g>
		<circle class="st14" cx="29.44" cy="118.51" r="3.23"/>
	</g>
	<g>
		<circle class="st2" cx="674.41" cy="481.92" r="3.43"/>
	</g>
	<g>
		<circle class="st2" cx="869.84" cy="366.12" r="3.43"/>
	</g>
	<g>
		<path class="st2" d="M634.5,495.2c-4.24,0-8.41-0.62-12.25-2.15c-3.2-1.27-4.88-4.62-4.87-9.7c0.02-13.52,12.28-40.66,39.62-70.79
			c21.9-24.14,60.47-57.82,119.91-81.17c44.68-17.56,74.42-19.72,88.39-6.44c14.55,13.83,6.02,39.88,5.94,40.14
			c-0.11,0.34-0.48,0.53-0.83,0.41c-0.34-0.11-0.53-0.49-0.41-0.83c0.08-0.25,8.35-25.52-5.6-38.78
			c-13.57-12.89-42.84-10.64-87.01,6.72c-102.59,40.31-158.65,120.73-158.7,150.75c-0.01,3.13,0.69,7.15,4.05,8.48
			c19.96,7.93,50.17-9.99,50.47-10.18c0.31-0.19,0.71-0.09,0.9,0.22c0.19,0.31,0.09,0.71-0.22,0.9
			C672.85,483.4,652.96,495.2,634.5,495.2z"/>
	</g>
</g>
</svg>
